{"accessors":[{"bufferView":0,"byteOffset":0,"componentType":5126,"count":15000,"max":[24.5,5.091054,24.5],"min":[-25.5,-4.770953,-25.5],"normalized":false,"type":"VEC3"},{"bufferView":1,"byteOffset":0,"componentType":5125,"count":15000,"max":[14999],"min":[0],"normalized":false,"type":"SCALAR"}],"asset":{"generator":"Godot Engine v4.0.beta8.official@45cac42c0b511672240c1fcccecfd3cc0580edcb","version":"2.0"},"bufferViews":[{"buffer":0,"byteLength":180000,"byteOffset":0},{"buffer":0,"byteLength":60000,"byteOffset":180000}],"buffers":[{"byteLength":240000,"uri":"terrain0.bin"}],"materials":[{"pbrMetallicRoughness":{"baseColorFactor":[0.99999988079071,0.99999988079071,0.99999988079071,1],"metallicFactor":0,"roughnessFactor":1}}],"meshes":[{"extras":{"targetNames":[]},"primitives":[{"attributes":{"POSITION":0},"indices":1,"material":0,"mode":4}]}],"nodes":[{"extensions":{},"mesh":0,"name":"MeshInstance3D"}],"scene":0,"scenes":[{"nodes":[0]}]}